ply
format ascii 1.0
comment Created by Blender 2.83.5 - www.blender.org, source file: ''
element vertex 48
property float x
property float y
property float z
property float nx
property float ny
property float nz
property float s
property float t
property uchar red
property uchar green
property uchar blue
property uchar alpha
element face 32
property list uchar uint vertex_indices
end_header
0.003000 -1.529240 0.808141 1.000000 0.000000 -0.000000 0.194152 0.769380 218 172 138 255
0.003000 -2.500000 1.500000 1.000000 0.000000 -0.000000 0.000000 1.000000 218 172 138 255
0.003000 -1.529240 -0.808141 1.000000 0.000000 -0.000000 0.194152 0.230620 218 172 138 255
0.003000 -2.500000 -1.500000 1.000000 0.000000 -0.000000 0.000000 0.000000 218 172 138 255
0.003000 1.529240 -0.808141 1.000000 0.000000 -0.000000 0.805848 0.230620 218 172 138 255
0.003000 2.500000 -1.500000 1.000000 0.000000 -0.000000 1.000000 0.000000 218 172 138 255
0.003000 1.529240 0.808141 1.000000 0.000000 -0.000000 0.805848 0.769380 218 172 138 255
0.003000 2.500000 1.500000 1.000000 0.000000 -0.000000 1.000000 1.000000 218 172 138 255
-0.000000 1.529240 -0.808141 -1.000000 -0.000000 0.000000 0.805848 0.230620 240 245 247 255
-0.000000 2.500000 -1.500000 -1.000000 -0.000000 0.000000 1.000000 0.000000 240 245 247 255
0.000000 -1.529240 -0.808141 -1.000000 -0.000000 0.000000 0.194152 0.230620 240 245 247 255
0.000000 -2.500000 -1.500000 -1.000000 -0.000000 0.000000 0.000000 0.000000 240 245 247 255
0.000000 -1.529240 0.808141 -1.000000 -0.000000 0.000000 0.194152 0.769380 240 245 247 255
0.000000 -2.500000 1.500000 -1.000000 -0.000000 0.000000 0.000000 1.000000 240 245 247 255
-0.000000 1.529240 0.808141 -1.000000 -0.000000 0.000000 0.805848 0.769380 240 245 247 255
-0.000000 2.500000 1.500000 -1.000000 -0.000000 0.000000 1.000000 1.000000 240 245 247 255
0.003000 2.500000 1.500000 -0.000000 1.000000 0.000000 1.000000 1.000000 218 172 138 255
0.003000 2.500000 -1.500000 -0.000000 1.000000 0.000000 1.000000 0.000000 218 172 138 255
-0.000000 2.500000 1.500000 -0.000000 1.000000 0.000000 1.000000 1.000000 218 172 138 255
-0.000000 2.500000 -1.500000 0.000000 1.000000 -0.000000 1.000000 0.000000 218 172 138 255
0.003000 -2.500000 1.500000 -0.000000 0.000000 1.000000 0.000000 1.000000 218 172 138 255
0.003000 2.500000 1.500000 -0.000000 0.000000 1.000000 1.000000 1.000000 218 172 138 255
0.000000 -2.500000 1.500000 -0.000000 0.000000 1.000000 0.000000 1.000000 218 172 138 255
-0.000000 2.500000 1.500000 -0.000000 0.000000 1.000000 1.000000 1.000000 218 172 138 255
0.003000 -2.500000 -1.500000 0.000000 -1.000000 -0.000000 0.000000 0.000000 218 172 138 255
0.003000 -2.500000 1.500000 0.000000 -1.000000 -0.000000 0.000000 1.000000 218 172 138 255
0.000000 -2.500000 -1.500000 0.000000 -1.000000 -0.000000 0.000000 0.000000 218 172 138 255
0.000000 -2.500000 1.500000 0.000000 -1.000000 -0.000000 0.000000 1.000000 218 172 138 255
0.003000 2.500000 -1.500000 0.000000 0.000000 -1.000000 1.000000 0.000000 218 172 138 255
0.003000 -2.500000 -1.500000 0.000000 0.000000 -1.000000 0.000000 0.000000 218 172 138 255
-0.000000 2.500000 -1.500000 0.000000 0.000000 -1.000000 1.000000 0.000000 218 172 138 255
0.000000 -2.500000 -1.500000 0.000000 0.000000 -1.000000 0.000000 0.000000 218 172 138 255
0.000000 -1.529240 0.808141 -0.000000 -0.000000 -1.000000 0.194152 0.769380 218 172 138 255
-0.000000 1.529240 0.808141 -0.000000 -0.000000 -1.000000 0.805848 0.769380 218 172 138 255
0.003000 -1.529240 0.808141 -0.000000 -0.000000 -1.000000 0.194152 0.769380 218 172 138 255
0.003000 1.529240 0.808141 -0.000000 -0.000000 -1.000000 0.805848 0.769380 218 172 138 255
-0.000000 1.529240 -0.808141 -0.000000 -1.000000 -0.000000 0.805848 0.230620 218 172 138 255
0.003000 1.529240 -0.808141 -0.000000 -1.000000 -0.000000 0.805848 0.230620 218 172 138 255
-0.000000 1.529240 0.808141 -0.000000 -1.000000 -0.000000 0.805848 0.769380 218 172 138 255
0.003000 1.529240 0.808141 -0.000000 -1.000000 0.000000 0.805848 0.769380 218 172 138 255
0.000000 -1.529240 -0.808141 0.000000 0.000000 1.000000 0.194152 0.230620 218 172 138 255
0.003000 -1.529240 -0.808141 0.000000 0.000000 1.000000 0.194152 0.230620 218 172 138 255
-0.000000 1.529240 -0.808141 0.000000 0.000000 1.000000 0.805848 0.230620 218 172 138 255
0.003000 1.529240 -0.808141 0.000000 0.000000 1.000000 0.805848 0.230620 218 172 138 255
0.000000 -1.529240 -0.808141 0.000000 1.000000 0.000000 0.194152 0.230620 218 172 138 255
0.000000 -1.529240 0.808141 0.000000 1.000000 0.000000 0.194152 0.769380 218 172 138 255
0.003000 -1.529240 -0.808141 0.000000 1.000000 0.000000 0.194152 0.230620 218 172 138 255
0.003000 -1.529240 0.808141 0.000000 1.000000 0.000000 0.194152 0.769380 218 172 138 255
3 0 1 2
3 2 1 3
3 2 3 4
3 4 3 5
3 4 5 6
3 6 5 7
3 6 7 0
3 0 7 1
3 8 9 10
3 10 9 11
3 10 11 12
3 12 11 13
3 12 13 14
3 14 13 15
3 14 15 8
3 8 15 9
3 16 17 18
3 18 17 19
3 20 21 22
3 22 21 23
3 24 25 26
3 26 25 27
3 28 29 30
3 30 29 31
3 32 33 34
3 34 33 35
3 36 37 38
3 38 37 39
3 40 41 42
3 42 41 43
3 44 45 46
3 46 45 47
